<svg width="40" height="40" viewBox="0 0 40 40" fill="none" xmlns="http://www.w3.org/2000/svg">
<g clip-path="url(#clip0_517_20736)">
<path d="M27.6086 2H12.3904C6.65171 2 2 6.65272 2 12.3904V27.6086C2 33.3473 6.65171 37.999 12.3904 37.999H27.6086C33.3473 37.999 37.999 33.3473 37.999 27.6086V12.3904C38 6.65272 33.3483 2 27.6086 2ZM34.6847 27.877C34.6847 31.6861 31.5966 34.7742 27.7876 34.7742H12.2125C8.4034 34.7742 5.31533 31.6861 5.31533 27.877V12.3019C5.31533 8.49289 8.4034 5.40482 12.2125 5.40482H27.7865C31.5956 5.40482 34.6837 8.49289 34.6837 12.3019V27.876L34.6847 27.877Z" fill="#FF281E"/>
<path d="M19.9994 10.7483C14.8409 10.7483 10.6588 14.9304 10.6588 20.0889C10.6588 25.2474 14.8409 29.4296 19.9994 29.4296C25.158 29.4296 29.3401 25.2474 29.3401 20.0889C29.3401 14.9304 25.158 10.7483 19.9994 10.7483ZM19.9994 26.1444C16.655 26.1444 13.944 23.4334 13.944 20.0889C13.944 16.7444 16.655 14.0335 19.9994 14.0335C23.3439 14.0335 26.0549 16.7444 26.0549 20.0889C26.0549 23.4334 23.3439 26.1444 19.9994 26.1444Z" fill="#FF281E"/>
<path d="M29.6519 8.21729C28.4502 8.21729 27.4758 9.19167 27.4758 10.3933C27.4758 11.595 28.4502 12.5693 29.6519 12.5693C30.8535 12.5693 31.8279 11.595 31.8279 10.3933C31.8279 9.19167 30.8535 8.21729 29.6519 8.21729Z" fill="#FF281E"/>
</g>
<defs>
<clipPath id="clip0_517_20736">
<rect width="36" height="36" fill="white" transform="translate(2 2)"/>
</clipPath>
</defs>
</svg>
