<svg width="80" height="50" viewBox="0 0 80 50" fill="none" xmlns="http://www.w3.org/2000/svg">
<rect width="80" height="50" rx="25" fill="#A55022"/>
<path d="M19.357 18.404C19.9543 18.544 20.4257 18.8333 20.771 19.272C21.1257 19.7107 21.303 20.2193 21.303 20.798C21.303 21.6473 21.0183 22.31 20.449 22.786C19.889 23.262 19.0817 23.5 18.027 23.5H13.421V13.602H17.915C18.923 13.602 19.7023 13.8213 20.253 14.26C20.8037 14.6987 21.079 15.324 21.079 16.136C21.079 16.7333 20.9203 17.2327 20.603 17.634C20.2857 18.026 19.8703 18.2827 19.357 18.404ZM15.815 17.648H17.383C18.2137 17.648 18.629 17.2933 18.629 16.584C18.629 15.8747 18.2043 15.52 17.355 15.52H15.815V17.648ZM17.523 21.554C18.4097 21.554 18.853 21.19 18.853 20.462C18.853 20.1073 18.7363 19.832 18.503 19.636C18.2697 19.4307 17.9383 19.328 17.509 19.328H15.815V21.554H17.523ZM27.7895 23.5L25.6475 19.762H25.1015V23.5H22.7075V13.602H26.7955C27.5795 13.602 28.2422 13.7373 28.7835 14.008C29.3248 14.2787 29.7308 14.652 30.0015 15.128C30.2722 15.5947 30.4075 16.1313 30.4075 16.738C30.4075 17.4567 30.2068 18.068 29.8055 18.572C29.4135 19.076 28.8395 19.4213 28.0835 19.608L30.4355 23.5H27.7895ZM25.1015 18.124H26.5855C27.0615 18.124 27.4115 18.0213 27.6355 17.816C27.8595 17.6013 27.9715 17.2887 27.9715 16.878C27.9715 16.486 27.8548 16.178 27.6215 15.954C27.3975 15.73 27.0522 15.618 26.5855 15.618H25.1015V18.124ZM36.4519 13.448C37.3852 13.448 38.2299 13.6673 38.9859 14.106C39.7512 14.5353 40.3532 15.1373 40.7919 15.912C41.2305 16.6773 41.4499 17.5453 41.4499 18.516C41.4499 19.4867 41.2259 20.3593 40.7779 21.134C40.3392 21.9087 39.7372 22.5153 38.9719 22.954C38.2159 23.3833 37.3759 23.598 36.4519 23.598C35.5279 23.598 34.6832 23.3833 33.9179 22.954C33.1619 22.5153 32.5599 21.9087 32.1119 21.134C31.6732 20.3593 31.4539 19.4867 31.4539 18.516C31.4539 17.5453 31.6732 16.6773 32.1119 15.912C32.5599 15.1373 33.1619 14.5353 33.9179 14.106C34.6832 13.6673 35.5279 13.448 36.4519 13.448ZM36.4519 15.674C35.6679 15.674 35.0425 15.9307 34.5759 16.444C34.1185 16.948 33.8899 17.6387 33.8899 18.516C33.8899 19.384 34.1185 20.0747 34.5759 20.588C35.0425 21.1013 35.6679 21.358 36.4519 21.358C37.2265 21.358 37.8472 21.1013 38.3139 20.588C38.7805 20.0747 39.0139 19.384 39.0139 18.516C39.0139 17.648 38.7805 16.9573 38.3139 16.444C37.8565 15.9307 37.2359 15.674 36.4519 15.674ZM56.3888 13.602L54.0227 23.5H51.0548L49.4727 16.878L47.8767 23.5H44.9087L42.5427 13.602H45.1467L46.4207 20.77L48.1567 13.602H50.7747L52.5107 20.77L53.7987 13.602H56.3888ZM66.5777 23.5H64.1837L60.1797 17.424V23.5H57.7857V13.602H60.1797L64.1837 19.734V13.602H66.5777V23.5ZM23.4517 32.404C24.0491 32.544 24.5204 32.8333 24.8657 33.272C25.2204 33.7107 25.3977 34.2193 25.3977 34.798C25.3977 35.6473 25.1131 36.31 24.5437 36.786C23.9837 37.262 23.1764 37.5 22.1217 37.5H17.5157V27.602H22.0097C23.0177 27.602 23.7971 27.8213 24.3477 28.26C24.8984 28.6987 25.1737 29.324 25.1737 30.136C25.1737 30.7333 25.0151 31.2327 24.6977 31.634C24.3804 32.026 23.9651 32.2827 23.4517 32.404ZM19.9097 31.648H21.4777C22.3084 31.648 22.7237 31.2933 22.7237 30.584C22.7237 29.8747 22.2991 29.52 21.4497 29.52H19.9097V31.648ZM21.6177 35.554C22.5044 35.554 22.9477 35.19 22.9477 34.462C22.9477 34.1073 22.8311 33.832 22.5977 33.636C22.3644 33.4307 22.0331 33.328 21.6037 33.328H19.9097V35.554H21.6177ZM31.8842 37.5L29.7422 33.762H29.1962V37.5H26.8022V27.602H30.8902C31.6742 27.602 32.3369 27.7373 32.8782 28.008C33.4195 28.2787 33.8255 28.652 34.0962 29.128C34.3669 29.5947 34.5022 30.1313 34.5022 30.738C34.5022 31.4567 34.3015 32.068 33.9002 32.572C33.5082 33.076 32.9342 33.4213 32.1782 33.608L34.5302 37.5H31.8842ZM29.1962 32.124H30.6802C31.1562 32.124 31.5062 32.0213 31.7302 31.816C31.9542 31.6013 32.0662 31.2887 32.0662 30.878C32.0662 30.486 31.9495 30.178 31.7162 29.954C31.4922 29.73 31.1469 29.618 30.6802 29.618H29.1962V32.124ZM38.2366 29.506V31.578H41.5826V33.384H38.2366V35.582H42.0026V37.5H35.8426V27.602H42.0026V29.506H38.2366ZM49.6341 35.694H45.9241L45.3081 37.5H42.7881L46.4141 27.672H49.1721L52.7981 37.5H50.2501L49.6341 35.694ZM49.0181 33.874L47.7861 30.234L46.5401 33.874H49.0181ZM62.7727 32.53C62.7727 33.5007 62.5627 34.364 62.1427 35.12C61.732 35.8667 61.1347 36.45 60.3507 36.87C59.576 37.29 58.6614 37.5 57.6067 37.5H53.8687V27.602H57.6067C58.6707 27.602 59.59 27.8073 60.3647 28.218C61.1394 28.6287 61.732 29.2073 62.1427 29.954C62.5627 30.7007 62.7727 31.5593 62.7727 32.53ZM57.3967 35.358C58.33 35.358 59.0534 35.1107 59.5667 34.616C60.0894 34.1213 60.3507 33.426 60.3507 32.53C60.3507 31.634 60.0894 30.9387 59.5667 30.444C59.0534 29.9493 58.33 29.702 57.3967 29.702H56.2627V35.358H57.3967Z" fill="white"/>
</svg>
