<svg width="532" height="170" viewBox="0 0 532 170" fill="none" xmlns="http://www.w3.org/2000/svg">
<path d="M411.01 143.101L427.136 106.605L435.917 110.485L419.791 146.981L411.01 143.101ZM415.333 119.363L418.728 111.68L438.32 120.337L434.925 128.02L415.333 119.363Z" fill="#FF281E"/>
<path d="M393.491 136.852C390.561 135.779 388.141 134.361 386.231 132.597C384.358 130.847 383.053 128.942 382.316 126.883L389.514 124.151C390.252 125.742 391.25 127.087 392.509 128.186C393.782 129.248 395.075 130.02 396.39 130.501C396.916 130.694 397.406 130.809 397.86 130.848C398.315 130.886 398.708 130.86 399.04 130.768C399.423 130.653 399.737 130.491 399.984 130.283C400.244 130.038 400.443 129.727 400.58 129.352C400.855 128.6 400.73 127.894 400.206 127.234C399.936 126.922 399.455 126.49 398.763 125.939C398.07 125.387 397.166 124.715 396.05 123.924C394.45 122.827 393.102 121.737 392.007 120.655C390.964 119.549 390.18 118.432 389.656 117.303C389.194 116.239 388.928 115.162 388.858 114.072C388.802 112.944 388.994 111.779 389.434 110.577C389.943 109.187 390.723 108.045 391.774 107.152C392.863 106.273 394.103 105.619 395.495 105.192C396.924 104.778 398.428 104.625 400.007 104.734C401.637 104.82 403.222 105.144 404.762 105.708C406.414 106.313 407.923 107.078 409.288 108.004C410.653 108.929 411.851 109.964 412.88 111.108C413.948 112.265 414.816 113.499 415.487 114.809L408.815 118.373C408.373 117.487 407.809 116.642 407.124 115.837C406.49 115.009 405.777 114.28 404.986 113.649C404.194 113.019 403.423 112.566 402.672 112.291C402.108 112.085 401.581 111.955 401.089 111.903C400.648 111.827 400.236 111.847 399.853 111.962C399.484 112.04 399.169 112.202 398.909 112.447C398.662 112.655 398.47 112.947 398.333 113.322C398.195 113.698 398.159 114.089 398.223 114.496C398.324 114.917 398.522 115.308 398.815 115.671C399.108 116.034 399.613 116.517 400.329 117.12C401.059 117.685 402.063 118.436 403.339 119.372C404.925 120.506 406.247 121.607 407.305 122.676C408.362 123.744 409.115 124.829 409.563 125.931C409.931 126.789 410.107 127.705 410.091 128.679C410.089 129.616 409.909 130.572 409.552 131.549C408.851 133.465 407.68 134.974 406.041 136.078C404.453 137.158 402.562 137.786 400.368 137.963C398.187 138.102 395.895 137.732 393.491 136.852Z" fill="#FF281E"/>
<path d="M359.655 126.206C357.068 125.506 354.934 124.204 353.253 122.299C351.621 120.365 350.531 118.04 349.981 115.322C349.442 112.566 349.586 109.662 350.411 106.612C351.257 103.484 352.602 100.886 354.447 98.8154C356.291 96.7453 358.439 95.3165 360.89 94.5291C363.351 93.7032 365.913 93.6505 368.578 94.3713C370.045 94.7682 371.319 95.3409 372.402 96.0895C373.522 96.8484 374.441 97.7394 375.159 98.7623C375.887 99.7466 376.444 100.83 376.829 102.011C377.224 103.154 377.425 104.327 377.431 105.53L375.582 104.782L377.556 97.4839L386.765 99.9751L378.446 130.73L369.063 128.191L371.068 120.778L373.169 121.284C372.568 122.282 371.789 123.169 370.833 123.946C369.877 124.724 368.797 125.343 367.595 125.805C366.393 126.267 365.116 126.544 363.766 126.634C362.415 126.725 361.045 126.582 359.655 126.206ZM364.318 119.076C365.747 119.463 367.071 119.469 368.292 119.094C369.512 118.72 370.573 118.013 371.476 116.972C372.39 115.893 373.071 114.524 373.52 112.864C373.969 111.203 374.066 109.696 373.811 108.343C373.566 106.95 373.011 105.785 372.146 104.847C371.291 103.87 370.15 103.188 368.721 102.801C367.331 102.425 366.021 102.444 364.79 102.857C363.609 103.242 362.561 103.973 361.648 105.052C360.745 106.093 360.069 107.443 359.62 109.103C359.171 110.764 359.068 112.29 359.313 113.682C359.569 115.036 360.11 116.177 360.936 117.105C361.801 118.043 362.928 118.7 364.318 119.076Z" fill="#FF281E"/>
<path d="M328.17 119.584C324.896 119.037 322.095 117.839 319.768 115.991C317.48 114.149 315.791 111.879 314.7 109.183C313.649 106.493 313.387 103.57 313.914 100.413C314.441 97.2571 315.639 94.5779 317.508 92.3756C319.415 90.1799 321.75 88.5828 324.513 87.5843C327.314 86.5924 330.353 86.3699 333.627 86.9169C336.902 87.4639 339.683 88.6585 341.971 90.5006C344.298 92.3493 345.987 94.6186 347.038 97.3086C348.09 99.9985 348.352 102.922 347.824 106.078C347.297 109.234 346.099 111.913 344.231 114.116C342.362 116.318 340.027 117.915 337.226 118.907C334.463 119.906 331.445 120.131 328.17 119.584ZM329.535 111.417C330.955 111.655 332.277 111.511 333.5 110.985C334.723 110.459 335.753 109.638 336.588 108.52C337.424 107.402 337.954 106.051 338.178 104.467C338.481 102.895 338.419 101.445 337.992 100.116C337.572 98.7485 336.869 97.6172 335.883 96.7225C334.896 95.8278 333.693 95.2618 332.273 95.0246C330.853 94.7873 329.511 94.9282 328.248 95.4472C327.025 95.9729 325.992 96.8142 325.15 97.9713C324.315 99.0889 323.785 100.44 323.561 102.025C323.257 103.596 323.319 105.046 323.746 106.375C324.173 107.703 324.88 108.815 325.866 109.71C326.891 110.611 328.114 111.18 329.535 111.417Z" fill="#FF281E"/>
<path d="M287.36 114.47L289.575 81.5442L277.123 80.7066L277.727 71.7269L313.107 74.1068L312.503 83.0865L299.752 82.2288L297.537 115.154L287.36 114.47Z" fill="#FF281E"/>
<path d="M245.345 115.306C242.272 115.514 239.469 114.982 236.937 113.71C234.406 112.439 232.338 110.614 230.733 108.238C229.166 105.818 228.276 103.032 228.062 99.879C227.848 96.7263 228.356 93.8654 229.585 91.2964C230.851 88.6848 232.653 86.5781 234.99 84.9764C237.327 83.3747 240.032 82.4697 243.105 82.2614C245.938 82.0693 248.566 82.3924 250.988 83.2305C253.451 84.0659 255.441 85.3342 256.959 87.0354L252.173 93.6141C251.571 93.0135 250.872 92.4595 250.076 91.9522C249.28 91.4448 248.412 91.0626 247.473 90.8056C246.533 90.5485 245.564 90.4538 244.567 90.5215C243.05 90.6242 241.738 91.074 240.629 91.8708C239.518 92.6277 238.685 93.6464 238.13 94.9268C237.575 96.2073 237.352 97.6457 237.46 99.242C237.563 100.759 237.976 102.114 238.698 103.308C239.46 104.499 240.444 105.414 241.651 106.054C242.857 106.694 244.198 106.964 245.674 106.864C246.712 106.794 247.662 106.609 248.524 106.31C249.383 105.971 250.154 105.518 250.837 104.95C251.56 104.38 252.215 103.694 252.802 102.893L258.376 108.829C257.136 110.638 255.332 112.123 252.965 113.286C250.639 114.446 248.098 115.119 245.345 115.306Z" fill="#FF281E"/>
<path d="M206.888 119.697C204.242 120.12 201.761 119.807 199.447 118.759C197.166 117.666 195.217 115.992 193.602 113.739C191.98 111.446 190.919 108.74 190.421 105.619C189.909 102.42 190.07 99.4977 190.903 96.8531C191.736 94.2085 193.109 92.0246 195.021 90.3013C196.927 88.5385 199.242 87.4393 201.968 87.0038C203.469 86.764 204.866 86.7634 206.16 87.0023C207.493 87.2348 208.697 87.6703 209.771 88.3088C210.839 88.9078 211.791 89.6671 212.627 90.5868C213.456 91.4669 214.12 92.4545 214.619 93.5495L212.626 93.6249L211.433 86.1596L220.854 84.6543L225.881 116.115L216.283 117.649L215.071 110.065L217.194 109.665C217.055 110.821 216.709 111.95 216.156 113.051C215.603 114.152 214.872 115.16 213.965 116.075C213.058 116.989 212.008 117.765 210.813 118.401C209.619 119.038 208.31 119.47 206.888 119.697ZM208.217 111.282C209.679 111.048 210.889 110.511 211.848 109.669C212.807 108.827 213.485 107.746 213.882 106.427C214.272 105.068 214.332 103.54 214.061 101.842C213.789 100.143 213.259 98.7289 212.471 97.5991C211.677 96.4299 210.693 95.5947 209.519 95.0936C208.339 94.5531 207.018 94.3995 205.557 94.6331C204.135 94.8603 202.947 95.4146 201.994 96.296C201.075 97.1316 200.42 98.2287 200.029 99.5874C199.632 100.907 199.57 102.415 199.841 104.114C200.112 105.812 200.645 107.246 201.44 108.415C202.228 109.545 203.189 110.364 204.323 110.871C205.497 111.372 206.795 111.509 208.217 111.282Z" fill="#FF281E"/>
<path d="M171.267 127.619C168.676 128.304 166.177 128.241 163.769 127.43C161.39 126.57 159.284 125.1 157.451 123.019C155.608 120.9 154.282 118.313 153.474 115.258C152.645 112.126 152.513 109.203 153.078 106.488C153.642 103.773 154.789 101.463 156.519 99.5572C158.239 97.6127 160.433 96.2875 163.102 95.5816C164.571 95.1929 165.961 95.0526 167.273 95.1609C168.623 95.2589 169.864 95.5718 170.997 96.0997C172.119 96.5889 173.142 97.2493 174.065 98.0808C174.979 98.8736 175.738 99.7898 176.344 100.829L174.369 101.104L172.435 93.7952L181.658 91.3553L189.806 122.156L180.409 124.642L178.445 117.217L180.518 116.607C180.495 117.771 180.263 118.929 179.823 120.08C179.383 121.231 178.757 122.307 177.946 123.307C177.135 124.308 176.167 125.185 175.042 125.937C173.917 126.69 172.659 127.251 171.267 127.619ZM171.747 119.113C173.178 118.735 174.329 118.079 175.199 117.145C176.069 116.211 176.635 115.068 176.898 113.716C177.151 112.325 177.057 110.799 176.618 109.136C176.178 107.473 175.509 106.119 174.612 105.074C173.705 103.99 172.642 103.257 171.424 102.876C170.196 102.456 168.866 102.435 167.435 102.814C166.043 103.182 164.917 103.852 164.057 104.825C163.226 105.748 162.684 106.905 162.431 108.296C162.168 109.648 162.257 111.156 162.696 112.818C163.136 114.481 163.81 115.855 164.717 116.939C165.615 117.984 166.653 118.702 167.832 119.094C169.05 119.475 170.355 119.481 171.747 119.113Z" fill="#FF281E"/>
<path d="M144.905 136.056C141.969 137.112 139.203 137.576 136.606 137.447C134.047 137.305 131.824 136.68 129.938 135.573L133.709 128.861C135.295 129.608 136.924 130 138.595 130.037C140.253 130.035 141.74 129.798 143.057 129.324C143.584 129.135 144.034 128.909 144.408 128.647C144.781 128.385 145.066 128.113 145.262 127.83C145.482 127.496 145.619 127.17 145.675 126.852C145.717 126.497 145.671 126.131 145.535 125.755C145.265 125.002 144.716 124.54 143.89 124.37C143.483 124.304 142.837 124.281 141.952 124.302C141.067 124.323 139.942 124.387 138.578 124.495C136.647 124.68 134.914 124.708 133.38 124.579C131.87 124.4 130.552 124.045 129.427 123.515C128.389 122.995 127.495 122.339 126.742 121.547C125.976 120.718 125.376 119.701 124.943 118.496C124.442 117.103 124.309 115.727 124.542 114.368C124.814 112.995 125.346 111.698 126.14 110.478C126.971 109.244 128.028 108.162 129.309 107.234C130.614 106.254 132.039 105.487 133.582 104.932C135.238 104.336 136.887 103.955 138.528 103.79C140.168 103.625 141.751 103.651 143.274 103.868C144.835 104.072 146.293 104.461 147.648 105.037L144.814 112.05C143.907 111.654 142.932 111.367 141.89 111.189C140.873 110.96 139.858 110.857 138.846 110.881C137.835 110.905 136.952 111.052 136.2 111.323C135.635 111.526 135.147 111.765 134.736 112.04C134.349 112.265 134.046 112.544 133.826 112.878C133.593 113.174 133.455 113.5 133.412 113.856C133.357 114.173 133.396 114.52 133.532 114.897C133.667 115.273 133.89 115.597 134.2 115.868C134.548 116.125 134.95 116.299 135.408 116.39C135.866 116.48 136.563 116.527 137.499 116.53C138.422 116.496 139.673 116.429 141.252 116.328C143.197 116.181 144.918 116.179 146.414 116.32C147.91 116.462 149.184 116.812 150.235 117.369C151.067 117.793 151.789 118.383 152.402 119.14C153.001 119.86 153.476 120.709 153.828 121.688C154.519 123.607 154.589 125.516 154.039 127.414C153.513 129.261 152.465 130.956 150.894 132.499C149.31 134.004 147.314 135.19 144.905 136.056Z" fill="#FF281E"/>
<path d="M107.006 151.246L103.48 143.424L109.935 140.515L99.7295 117.868L93.2747 120.777L89.7495 112.955L112.013 102.921L115.538 110.744L109.029 113.677L119.235 136.324L125.744 133.39L129.269 141.213L107.006 151.246Z" fill="#FF281E"/>
<path d="M510.559 89.1563C511.374 86.8341 512.224 84.4405 513.111 81.9754C513.998 79.5104 514.929 77.0903 515.904 74.7151C516.88 72.3398 517.9 70.0989 518.964 67.9924L521.074 63.815L530.125 68.3867L528.015 72.564C526.933 74.7063 525.716 76.8927 524.366 79.1233C523.015 81.3539 521.611 83.5574 520.153 85.7339C518.713 87.8747 517.3 89.9172 515.915 91.8614L510.559 89.1563ZM506.042 104.755C504.578 104.015 503.643 103.028 503.236 101.792C502.83 100.556 503.014 99.1701 503.79 97.6348C504.511 96.2067 505.526 95.2627 506.834 94.8029C508.141 94.3431 509.491 94.4649 510.884 95.1682C512.348 95.9076 513.256 96.9041 513.609 98.1578C514.015 99.3938 513.831 100.779 513.055 102.315C512.352 103.707 511.346 104.633 510.038 105.093C508.731 105.553 507.398 105.44 506.042 104.755Z" fill="#FF281E"/>
<path d="M467.055 101.103L480.624 88.4145L478.739 92.9607L478.27 56.1284L488.197 60.5308L487.846 77.8996C487.851 78.7769 487.813 79.7009 487.733 80.6716C487.653 81.6423 487.515 82.5441 487.321 83.3768L485.798 83.5548C486.261 83.1036 486.798 82.5325 487.411 81.8416C488.077 81.1303 488.785 80.3722 489.535 79.5674L501.745 66.5385L511.728 70.9652L486.416 94.5931L475.776 104.971L467.055 101.103Z" fill="#FF281E"/>
<path d="M443.702 77.9581C441.182 77.0457 439.164 75.5705 437.647 73.5324C436.182 71.4702 435.288 69.0622 434.966 66.3082C434.658 63.5166 435.042 60.6351 436.118 57.6639C437.221 54.6175 438.778 52.1394 440.788 50.2297C442.798 48.32 445.057 47.0746 447.565 46.4936C450.086 45.875 452.644 46.0355 455.239 46.9752C456.669 47.4926 457.891 48.1693 458.907 49.0052C459.961 49.8547 460.803 50.819 461.433 51.898C462.077 52.9394 462.542 54.0648 462.827 55.2742C463.126 56.446 463.229 57.6317 463.135 58.8313L461.355 57.9316L463.928 50.8232L472.898 54.0711L462.052 84.0279L452.912 80.7187L455.527 73.4975L457.578 74.1764C456.896 75.1206 456.046 75.9402 455.029 76.6354C454.012 77.3305 452.885 77.8583 451.648 78.2189C450.411 78.5794 449.116 78.7487 447.763 78.7266C446.41 78.7045 445.056 78.4484 443.702 77.9581ZM448.942 71.2408C450.334 71.7447 451.653 71.8607 452.9 71.589C454.147 71.3173 455.263 70.7007 456.25 69.739C457.25 68.7397 458.042 67.4315 458.628 65.8142C459.214 64.197 459.435 62.7033 459.293 61.3331C459.165 59.9253 458.709 58.7178 457.925 57.7108C457.154 56.6661 456.074 55.8918 454.682 55.388C453.328 54.8977 452.021 54.8072 450.76 55.1165C449.551 55.4019 448.446 56.0441 447.446 57.0434C446.46 58.0051 445.674 59.2945 445.088 60.9118C444.503 62.529 444.274 64.0416 444.402 65.4494C444.544 66.8196 444.989 68.0014 445.735 68.9948C446.519 70.0019 447.588 70.7505 448.942 71.2408Z" fill="#FF281E"/>
<path d="M407.318 64.1542C404.711 63.2496 402.616 61.782 401.034 59.7514C399.503 57.6961 398.558 55.2937 398.2 52.5443C397.854 49.7571 398.206 46.8519 399.255 43.8286C400.303 40.8054 401.82 38.3254 403.804 36.3888C405.802 34.4144 408.057 33.101 410.569 32.4485C413.082 31.7959 415.661 31.9285 418.306 32.8462C419.667 33.3182 420.898 33.9783 422.001 34.8267C423.104 35.675 424.041 36.6352 424.813 37.7072C425.584 38.7791 426.127 39.899 426.441 41.0666C426.769 42.1964 426.819 43.2723 426.592 44.2942L424.261 44.0571L430.986 24.6705L440.113 27.8366L425.561 69.7841L417.114 66.854L418.984 59.8181L420.699 60.7308C420.258 61.6362 419.566 62.4121 418.622 63.0584C417.716 63.7178 416.653 64.2172 415.435 64.5566C414.229 64.8582 412.918 64.975 411.503 64.9072C410.111 64.8903 408.716 64.6393 407.318 64.1542ZM412.258 57.4212C413.656 57.9063 414.983 57.9857 416.24 57.6595C417.496 57.3332 418.598 56.6572 419.547 55.6314C420.533 54.6188 421.308 53.3 421.872 51.675C422.449 50.0122 422.664 48.4778 422.516 47.0719C422.407 45.679 421.96 44.4655 421.176 43.4313C420.391 42.3971 419.3 41.6375 417.902 41.1524C416.503 40.6673 415.176 40.5879 413.92 40.9142C412.701 41.2535 411.599 41.9296 410.612 42.9422C409.626 43.9549 408.844 45.2926 408.268 46.9554C407.704 48.5804 407.496 50.0958 407.643 51.5018C407.79 52.9077 408.237 54.1212 408.984 55.1423C409.768 56.1765 410.86 56.9362 412.258 57.4212Z" fill="#FF281E"/>
<path d="M351.459 53.7493L358.245 14.4305L367.705 16.0631L360.92 55.3819L351.459 53.7493ZM349.891 29.6718L351.32 21.3942L372.428 25.0369L370.999 33.3146L349.891 29.6718Z" fill="#FF281E"/>
<path d="M329.978 51.3221C326.482 50.9095 323.526 49.8557 321.108 48.1606C318.694 46.4258 316.916 44.2624 315.771 41.6705C314.632 39.0388 314.248 36.1538 314.618 33.0156C314.904 30.5924 315.564 28.4148 316.597 26.4826C317.631 24.5504 318.949 22.9338 320.553 21.6328C322.161 20.292 323.985 19.3393 326.026 18.7745C328.11 18.1747 330.325 18.0131 332.668 18.2897C334.893 18.5523 336.872 19.1886 338.605 20.1988C340.379 21.2136 341.856 22.5158 343.038 24.1053C344.22 25.6947 345.054 27.5049 345.539 29.5358C346.024 31.5667 346.091 33.7294 345.74 36.0241L345.378 38.5792L320.173 35.6045L319.435 30.08L338.264 32.3022L337.118 33.3148L337.259 32.1231C337.296 31.1206 337.082 30.2092 336.615 29.3888C336.192 28.5334 335.569 27.8356 334.747 27.2955C333.925 26.7554 332.957 26.4197 331.845 26.2884C330.296 26.1056 328.928 26.2663 327.74 26.7706C326.597 27.2399 325.678 28.0376 324.981 29.1637C324.289 30.25 323.842 31.6473 323.64 33.3554C323.434 35.1033 323.611 36.6749 324.171 38.0702C324.776 39.4304 325.731 40.5501 327.037 41.4293C328.383 42.3131 330.029 42.8698 331.976 43.0996C333.326 43.259 334.541 43.201 335.621 42.9257C336.741 42.655 337.972 42.1156 339.316 41.3076L343.04 48.1512C341.682 49.0784 340.268 49.7976 338.798 50.3089C337.328 50.8201 335.839 51.1479 334.332 51.2922C332.859 51.4809 331.408 51.4909 329.978 51.3221Z" fill="#FF281E"/>
<path d="M295.991 48.2902C292.476 48.102 289.458 47.2394 286.936 45.7024C284.417 44.1254 282.504 42.0802 281.196 39.5667C279.891 37.0132 279.323 34.1588 279.491 31.0033C279.622 28.5668 280.141 26.3514 281.049 24.3571C281.957 22.3628 283.17 20.6652 284.687 19.2643C286.206 17.8234 287.965 16.756 289.965 16.062C292.007 15.3301 294.207 15.0273 296.563 15.1534C298.8 15.2732 300.816 15.7817 302.61 16.679C304.445 17.5783 306.003 18.7834 307.284 20.294C308.565 21.8047 309.513 23.5579 310.127 25.5536C310.741 27.5492 310.946 29.7033 310.742 32.0157L310.544 34.5888L285.201 33.2317L284.111 27.7657L303.044 28.7795L301.965 29.8633L302.029 28.665C302.002 27.6622 301.73 26.7663 301.211 25.9775C300.735 25.1508 300.069 24.4943 299.214 24.0078C298.359 23.5214 297.372 23.2483 296.253 23.1884C294.696 23.105 293.34 23.3528 292.188 23.932C291.077 24.4734 290.21 25.3283 289.587 26.4966C288.966 27.625 288.609 29.048 288.517 30.7655C288.423 32.523 288.7 34.0801 289.349 35.4367C290.039 36.7555 291.064 37.8118 292.423 38.6056C293.823 39.4016 295.501 39.852 297.458 39.9568C298.817 40.0295 300.025 39.894 301.085 39.5501C302.185 39.2085 303.38 38.5915 304.669 37.6991L308.823 44.2906C307.527 45.3028 306.162 46.111 304.727 46.7151C303.293 47.3193 301.828 47.7416 300.333 47.982C298.876 48.2645 297.429 48.3672 295.991 48.2902Z" fill="#FF281E"/>
<path d="M238.772 47.3241L227.497 15.7301L237.634 15.4824L244.018 36.0326L242.752 35.8234L248.958 19.587L254.596 19.4492L261.948 35.4144L260.572 35.5681L265.946 14.7906L276.083 14.5429L266.004 46.6587L258.926 46.8316L251.611 29.9053L252.333 30.0077L245.85 47.1512L238.772 47.3241Z" fill="#FF281E"/>
<path d="M215.939 50.3282C212.873 50.9046 210.068 50.9232 207.524 50.3839C205.02 49.8372 202.925 48.8676 201.239 47.4752L206.027 41.4466C207.475 42.4362 209.021 43.0816 210.665 43.3831C212.301 43.6452 213.808 43.6469 215.184 43.3882C215.734 43.2847 216.214 43.1334 216.625 42.9342C217.035 42.7349 217.359 42.5112 217.597 42.2629C217.867 41.9679 218.055 41.668 218.161 41.3633C218.259 41.0192 218.271 40.6506 218.197 40.2575C218.049 39.4713 217.581 38.9285 216.792 38.6291C216.401 38.4991 215.767 38.3741 214.89 38.2541C214.013 38.1341 212.892 38.0192 211.528 37.9093C209.592 37.7849 207.877 37.5376 206.383 37.1673C204.92 36.7503 203.676 36.1907 202.648 35.4884C201.707 34.8107 200.927 34.0211 200.31 33.1196C199.686 32.1788 199.255 31.0794 199.019 29.8215C198.745 28.367 198.832 26.9872 199.278 25.6822C199.764 24.3699 200.496 23.1741 201.473 22.0949C202.49 21.0083 203.704 20.1084 205.117 19.3951C206.561 18.6351 208.09 18.1036 209.701 17.8006C211.431 17.4754 213.119 17.3615 214.765 17.459C216.412 17.5565 217.97 17.8334 219.439 18.2897C220.948 18.7386 222.326 19.3547 223.572 20.1379L219.661 26.6121C218.828 26.0768 217.911 25.6387 216.911 25.2976C215.942 24.9098 214.957 24.6474 213.954 24.5103C212.952 24.3732 212.057 24.3785 211.271 24.5264C210.681 24.6372 210.162 24.796 209.712 25.0026C209.295 25.1625 208.951 25.39 208.681 25.685C208.403 25.9407 208.215 26.2405 208.117 26.5846C208.012 26.8893 207.996 27.2382 208.07 27.6314C208.144 28.0245 208.312 28.3795 208.575 28.6963C208.878 29.0058 209.247 29.2415 209.685 29.4034C210.122 29.5654 210.803 29.7223 211.727 29.8742C212.644 29.9868 213.89 30.1188 215.465 30.2704C217.408 30.4341 219.108 30.7048 220.562 31.0825C222.017 31.4602 223.219 32.0075 224.168 32.7245C224.923 33.2746 225.542 33.9721 226.027 34.8171C226.504 35.6229 226.838 36.5368 227.031 37.5589C227.407 39.5637 227.174 41.4596 226.329 43.2464C225.517 44.9864 224.213 46.4933 222.417 47.767C220.614 49.0014 218.455 49.8551 215.939 50.3282Z" fill="#FF281E"/>
<path d="M148.229 73.9395L151.806 55.7098L152.938 60.4993L131.004 30.9069L141.63 28.6671L151.51 42.9568C152.027 43.6653 152.537 44.4367 153.04 45.2709C153.543 46.1052 153.959 46.9168 154.289 47.7057L153.158 48.7412C153.269 48.1046 153.371 47.3268 153.463 46.408C153.587 45.4418 153.717 44.4128 153.855 43.3209L156.131 25.6106L166.817 23.3585L160.119 57.3302L157.564 71.9719L148.229 73.9395Z" fill="#FF281E"/>
<path d="M119.918 67.711C116.725 68.618 113.68 68.7341 110.786 68.0592C107.93 67.3733 105.432 66.0452 103.292 64.0748C101.191 62.0935 99.7034 59.5637 98.8291 56.4855C97.9549 53.4072 97.8909 50.4731 98.6371 47.6831C99.4217 44.8822 100.849 42.4394 102.918 40.3548C105.026 38.2593 107.676 36.758 110.87 35.851C114.064 34.944 117.088 34.8334 119.945 35.5192C122.839 36.1941 125.337 37.5222 127.438 39.5036C129.539 41.4849 131.027 44.0147 131.901 47.0929C132.776 50.1712 132.84 53.1053 132.093 55.8953C131.347 58.6853 129.92 61.1281 127.813 63.2236C125.743 65.3082 123.112 66.804 119.918 67.711ZM117.656 59.746C119.041 59.3526 120.174 58.6566 121.055 57.658C121.936 56.6594 122.514 55.4763 122.791 54.1086C123.068 52.741 122.969 51.293 122.493 49.7648C122.095 48.2147 121.418 46.9307 120.464 45.9127C119.498 44.8563 118.379 44.1347 117.105 43.7481C115.83 43.3615 114.501 43.3649 113.116 43.7583C111.73 44.1517 110.578 44.8531 109.659 45.8627C108.778 46.8612 108.205 48.0636 107.939 49.4698C107.662 50.8374 107.762 52.2854 108.237 53.8136C108.636 55.3636 109.312 56.6477 110.267 57.6656C111.221 58.6836 112.335 59.3859 113.609 59.7726C114.922 60.1483 116.271 60.1394 117.656 59.746Z" fill="#FF281E"/>
<path d="M89.6734 89.9418L83.8081 84.0811C85.5496 83.4873 86.8351 82.7954 87.6646 82.0054C88.494 81.2154 88.9362 80.2194 88.9912 79.0174C89.0591 77.8532 88.7832 76.3624 88.1636 74.5452L78.6753 46.7183L87.7616 43.6201L97.9857 73.6049C98.9281 76.3687 99.2294 78.8016 98.8897 80.9037C98.5499 83.0059 97.6009 84.8086 96.0427 86.3119C94.4845 87.8153 92.3614 89.0252 89.6734 89.9418ZM81.3556 39.1482C79.6519 39.7292 78.1723 39.7899 76.9169 39.3305C75.6864 38.8203 74.8129 37.808 74.2966 36.2937C73.8318 34.9307 73.9432 33.646 74.6306 32.4396C75.3181 31.2332 76.4947 30.346 78.1605 29.778C79.8642 29.1971 81.3313 29.1617 82.5618 29.6719C83.7794 30.1442 84.6399 31.1186 85.1434 32.5951C85.621 33.9959 85.5161 35.2996 84.8287 36.506C84.1791 37.6995 83.0214 38.5802 81.3556 39.1482Z" fill="#FF281E"/>
<path d="M53.719 90.4442L41.8962 60.8591L50.365 57.4748L53.0482 63.3808L51.5325 64.7619C51.4067 63.2614 51.6486 61.7648 52.2582 60.272C52.89 58.7272 53.8153 57.3237 55.0338 56.0613C56.2524 54.799 57.6789 53.8413 59.3132 53.1882C61.5418 52.2976 63.6032 52.0123 65.4971 52.3323C67.3763 52.6152 69.0695 53.5108 70.5769 55.0191C72.0694 56.4903 73.3352 58.526 74.3742 61.126L81.6326 79.2894L72.6624 82.8741L65.6934 65.435C65.2184 64.2464 64.6579 63.3289 64.0119 62.6825C63.3659 62.036 62.6158 61.6681 61.7616 61.5787C60.9298 61.4373 60.0198 61.5855 59.0318 62.0235C58.2517 62.3352 57.5794 62.7546 57.0147 63.2818C56.4352 63.7719 56.0004 64.3548 55.7105 65.0306C55.4058 65.6693 55.2236 66.3452 55.1639 67.0583C55.1414 67.7565 55.2712 68.4584 55.5532 69.1642L62.6335 86.8818L58.232 88.6408C57.1919 89.0564 56.3005 89.4126 55.5576 89.7095C54.8147 90.0064 54.2018 90.2513 53.719 90.4442Z" fill="#FF281E"/>
<path d="M20.5622 106.165L2.28494 68.3508L28.6471 55.609L32.4331 63.442L14.9844 71.8756L25.6896 94.0242L43.6786 85.3294L47.4646 93.1624L20.5622 106.165ZM17.3902 88.5726L13.787 81.1177L33.3965 71.6397L36.9998 79.0945L17.3902 88.5726Z" fill="#FF281E"/>
</svg>
